<svg width="34" height="36" viewBox="0 0 34 36" fill="none" xmlns="http://www.w3.org/2000/svg">
<path d="M19.8333 3H8.50001C7.74856 3 7.02789 3.31607 6.49654 3.87868C5.96518 4.44129 5.66667 5.20435 5.66667 6V30C5.66667 30.7956 5.96518 31.5587 6.49654 32.1213C7.02789 32.6839 7.74856 33 8.50001 33H25.5C26.2515 33 26.9721 32.6839 27.5035 32.1213C28.0348 31.5587 28.3333 30.7956 28.3333 30V12M19.8333 3L28.3333 12M19.8333 3V12H28.3333M22.6667 19.5H11.3333M22.6667 25.5H11.3333M14.1667 13.5H11.3333" stroke="white" stroke-width="3" stroke-linecap="round" stroke-linejoin="round"/>
</svg>
